<?xml version="1.0" standalone="no"?>
<!DOCTYPE svg PUBLIC "-//W3C//DTD SVG 20010904//EN"
 "http://www.w3.org/TR/2001/REC-SVG-20010904/DTD/svg10.dtd">
<svg version="1.0" xmlns="http://www.w3.org/2000/svg"
 width="666.000000pt" height="375.000000pt" viewBox="0 0 666.000000 375.000000"
 preserveAspectRatio="xMidYMid meet">

<g transform="translate(0.000000,375.000000) scale(0.100000,-0.100000)"
fill="#000000" stroke="none">
<path d="M3235 2534 c-155 -37 -227 -70 -321 -145 -110 -87 -196 -225 -229
-366 -25 -102 -16 -262 18 -358 80 -226 248 -380 478 -435 108 -26 194 -25
300 1 304 77 509 336 509 644 0 294 -186 544 -473 636 -60 19 -238 34 -282 23z
m171 -373 c49 -22 88 -70 103 -127 21 -80 -33 -184 -112 -213 -32 -13 -106
-14 -124 -3 -6 4 19 7 55 7 79 0 121 23 152 85 58 114 -10 238 -145 261 l-40
6 35 2 c19 0 54 -8 76 -18z m-126 2 c-8 -3 -24 -10 -35 -15 -20 -9 -20 -9 -1
6 11 9 27 16 35 15 14 0 14 -1 1 -6z m40 -73 c0 -27 -4 -50 -10 -50 -5 0 -10
16 -10 35 0 25 -4 35 -16 35 -19 0 -74 -53 -74 -72 0 -7 25 -26 55 -43 l55
-29 0 -59 0 -59 -32 6 c-44 8 -126 96 -90 96 5 0 15 -12 22 -26 8 -14 27 -32
42 -40 27 -14 27 -14 34 20 8 44 5 48 -61 85 -30 17 -55 35 -55 40 0 21 49 78
80 93 54 27 60 24 60 -32z m73 36 c54 -23 80 -59 85 -120 5 -67 -23 -121 -74
-142 -65 -27 -64 -29 -64 131 0 93 4 145 10 145 6 0 25 -6 43 -14z m-236 -108
c-3 -7 -5 -2 -5 12 0 14 2 19 5 13 2 -7 2 -19 0 -25z m0 -70 c-3 -7 -5 -2 -5
12 0 14 2 19 5 13 2 -7 2 -19 0 -25z m88 -112 c6 -4 1 -4 -10 2 -11 6 -29 21
-40 34 -19 22 -19 22 10 -2 17 -14 35 -29 40 -34z m65 -156 c0 -10 -7 -21 -15
-24 -13 -5 -14 -10 -5 -28 11 -22 10 -22 -4 -4 -14 18 -14 21 1 38 15 17 15
22 3 41 -12 20 -12 21 3 8 10 -7 17 -21 17 -31z m67 -52 c-2 -18 -4 -4 -4 32
0 36 2 50 4 33 2 -18 2 -48 0 -65z m128 32 c0 -33 -3 -60 -7 -60 -5 0 -8 27
-8 60 0 33 3 60 8 60 4 0 7 -27 7 -60z m58 26 c-1 -14 2 -26 8 -26 5 0 9 -11
9 -25 0 -14 -6 -25 -14 -25 -9 0 -12 8 -8 25 3 19 0 25 -13 25 -14 0 -15 3 -5
15 7 8 9 22 6 31 -4 10 -2 14 6 11 7 -2 12 -16 11 -31z m57 -16 c0 -43 3 -52
23 -60 16 -6 17 -9 5 -9 -29 -1 -48 28 -48 75 0 24 5 44 10 44 6 0 10 -23 10
-50z m77 -12 c-2 -13 -4 -3 -4 22 0 25 2 35 4 23 2 -13 2 -33 0 -45z m46 43
c-4 -15 3 -22 32 -31 31 -10 36 -16 33 -38 -3 -24 -7 -27 -45 -27 -29 -1 -43
4 -43 12 0 15 16 17 25 3 12 -19 45 -11 45 10 0 11 -6 20 -14 20 -25 0 -58 34
-51 53 9 23 24 22 18 -2z m67 9 c0 -5 -4 -10 -9 -10 -6 0 -13 5 -16 10 -3 6 1
10 9 10 9 0 16 -4 16 -10z m-626 -76 c9 -24 7 -27 -9 -10 -17 17 -19 26 -6 26
5 0 12 -7 15 -16z"/>
<path d="M3369 2108 c-5 -12 -4 -130 2 -133 11 -8 74 39 77 58 5 23 -70 94
-79 75z"/>
<path d="M3400 1958 c-34 -23 -45 -51 -31 -76 11 -19 65 28 80 68 13 37 -2 40
-49 8z"/>
</g>
</svg>
